<?xml version="1.0" encoding="utf-8"?>
<!-- Generator: Adobe Illustrator 15.0.0, SVG Export Plug-In . SVG Version: 6.00 Build 0)  -->
<!DOCTYPE svg PUBLIC "-//W3C//DTD SVG 1.1//EN" "http://www.w3.org/Graphics/SVG/1.1/DTD/svg11.dtd">
<svg version="1.1" id="Layer_1" xmlns="http://www.w3.org/2000/svg" xmlns:xlink="http://www.w3.org/1999/xlink" x="0px" y="0px"
	 width="612px" height="792px" viewBox="0 0 612 792" enable-background="new 0 0 612 792" xml:space="preserve">
<path fill="#010101" d="M203.351,109.949c0,0-15.141-86.358,95.304-110.95C292.814,124.546,203.351,109.949,203.351,109.949z"/>
<path fill="#010101" d="M203.351,142.062c32.569,0,58.973-26.051,96.923-25.111c0,0,52.388-0.428,90.339,49.927
	c0,0-119.694,113.854,15.27,195.596c0,0-36.555,105.62-101.267,132.321C268,509.901,256.324,471.95,219.831,471.95
	c-36.491,0-57.691,27.004-89.04,27.004c-31.35,0-58.389-8.027-112.396-137.94c-54.007-129.911,21.896-242.308,86.122-240.848
	C168.742,121.626,176.041,142.062,203.351,142.062z"/>
</svg>
