<?xml version="1.0" encoding="utf-8"?>
<!-- Generator: Adobe Illustrator 15.0.0, SVG Export Plug-In . SVG Version: 6.00 Build 0)  -->
<!DOCTYPE svg PUBLIC "-//W3C//DTD SVG 1.1//EN" "http://www.w3.org/Graphics/SVG/1.1/DTD/svg11.dtd">
<svg version="1.1" id="Layer_1" xmlns="http://www.w3.org/2000/svg" xmlns:xlink="http://www.w3.org/1999/xlink" x="0px" y="0px"
	 width="1000px" height="500px" viewBox="0 0 1000 500" enable-background="new 0 0 1000 500" xml:space="preserve">
<rect fill="#FFFFFF" width="500" height="500"/>
<path fill="#020202" d="M292.889,57.94L243.97,229.746c0,0-68.982-63.949-186.883-9.857l48.501-166.402
	C105.588,53.486,209.387-9.325,292.889,57.94z"/>
<path fill="#020202" d="M236.756,256.954L187.838,428.76c0,0-68.982-63.949-186.883-9.857L49.456,252.5
	C49.456,252.5,153.254,189.688,236.756,256.954z"/>
<path fill="#020202" d="M263.244,242.443l48.918-171.807c0,0,68.982,68.542,186.883,14.451l-48.501,168.953
	C450.544,254.041,346.746,309.708,263.244,242.443z"/>
<path fill="#020202" d="M208.133,439.926l48.918-171.807c0,0,68.473,70.073,186.373,15.982l-47.991,167.422
	C395.433,451.523,291.635,507.191,208.133,439.926z"/>
</svg>
