<?xml version="1.0" encoding="utf-8"?>
<!-- Generator: Adobe Illustrator 15.0.0, SVG Export Plug-In . SVG Version: 6.00 Build 0)  -->
<!DOCTYPE svg PUBLIC "-//W3C//DTD SVG 1.1//EN" "http://www.w3.org/Graphics/SVG/1.1/DTD/svg11.dtd">
<svg version="1.1" id="Layer_1" xmlns="http://www.w3.org/2000/svg" xmlns:xlink="http://www.w3.org/1999/xlink" x="0px" y="0px"
	 width="512px" height="512px" viewBox="0 0 512 512" enable-background="new 0 0 512 512" xml:space="preserve">
<path id="arrow-28-icon" fill="#FFFFFF" d="M256,90c-91.755,0-166,74.258-166,166c0,91.756,74.259,166,166,166
	c91.755,0,166-74.258,166-166C422,164.245,347.741,90,256,90z M256,462c-113.771,0-206-92.229-206-206C50,142.23,142.229,50,256,50
	c113.771,0,206,92.229,206,206C462,369.772,369.771,462,256,462z M343.402,199.955l32.106,32.263L255,352.155L134.49,232.218
	l32.107-32.263L255,287.938L343.402,199.955z"/>
</svg>
