<?xml version="1.0" encoding="utf-8"?>
<!-- Generator: Adobe Illustrator 15.0.0, SVG Export Plug-In . SVG Version: 6.00 Build 0)  -->
<!DOCTYPE svg PUBLIC "-//W3C//DTD SVG 1.1//EN" "http://www.w3.org/Graphics/SVG/1.1/DTD/svg11.dtd">
<svg version="1.1" id="Layer_1" xmlns="http://www.w3.org/2000/svg" xmlns:xlink="http://www.w3.org/1999/xlink" x="0px" y="0px"
	 width="512px" height="512px" viewBox="0 0 512 512" enable-background="new 0 0 512 512" xml:space="preserve">
<path id="email-10-icon" fill="#FFFFFF" d="M256,90c44.34,0,86.026,17.267,117.381,48.62C404.734,169.973,422,211.659,422,256
	c0,44.34-17.267,86.025-48.619,117.38C342.026,404.732,300.34,422,256,422s-86.025-17.269-117.38-48.62
	C107.267,342.026,90,300.34,90,256c0-44.341,17.268-86.026,48.62-117.38C169.973,107.266,211.66,90,256,90 M256,50
	C142.229,50,50,142.229,50,256c0,113.771,92.229,206,206,206c113.771,0,206-92.229,206-206C462,142.229,369.771,50,256,50L256,50z
	 M213.419,248.356l-61.479-47.225v108.702L213.419,248.356z M361.514,179.178H152.664l104.342,80.152L361.514,179.178z
	 M286.252,259.396l-29.255,22.438l-29.303-22.508l-75.498,75.497H361.68L286.252,259.396z M300.538,248.438l61.522,61.522V201.254
	L300.538,248.438z"/>
</svg>
