<?xml version="1.0" encoding="utf-8"?>
<!-- Generator: Adobe Illustrator 15.0.0, SVG Export Plug-In . SVG Version: 6.00 Build 0)  -->
<!DOCTYPE svg PUBLIC "-//W3C//DTD SVG 1.1//EN" "http://www.w3.org/Graphics/SVG/1.1/DTD/svg11.dtd">
<svg version="1.1" id="Layer_1" xmlns="http://www.w3.org/2000/svg" xmlns:xlink="http://www.w3.org/1999/xlink" x="0px" y="0px"
	 width="512px" height="512px" viewBox="0 0 512 512" enable-background="new 0 0 512 512" xml:space="preserve">
<path id="linkedin-circle-outline-icon" fill="#FFFFFF" d="M256.417,90c44.34,0,86.026,17.267,117.381,48.62
	c31.354,31.354,48.62,73.04,48.62,117.38s-17.268,86.025-48.62,117.38C342.443,404.733,300.757,422,256.417,422
	s-86.025-17.269-117.38-48.62c-31.354-31.354-48.62-73.04-48.62-117.38s17.268-86.026,48.62-117.38
	C170.391,107.267,212.077,90,256.417,90 M256.417,50c-113.771,0-206,92.229-206,206c0,113.771,92.229,206,206,206
	c113.771,0,206.001-92.229,206.001-206C462.418,142.229,370.188,50,256.417,50L256.417,50z M213.777,175.765
	c0,12.657-10.179,22.918-22.733,22.918c-12.556,0-22.733-10.261-22.733-22.918c0-12.658,10.179-22.918,22.733-22.918
	C203.599,152.847,213.777,163.107,213.777,175.765z M210.449,214.949h-38.443v124.204h38.443V214.949z M271.904,214.949h-36.873
	v124.204h36.873c0,0,0-46.068,0-65.197c0-17.468,8.04-27.863,23.428-27.863c14.141,0,20.933,9.982,20.933,27.863
	c0,17.882,0,65.197,0,65.197h38.259c0,0,0-45.376,0-78.646c0-33.269-18.853-49.349-45.189-49.349
	c-26.338,0-37.429,20.517-37.429,20.517L271.904,214.949L271.904,214.949z"/>
</svg>
