<?xml version="1.0" encoding="utf-8"?>
<!-- Generator: Adobe Illustrator 15.0.0, SVG Export Plug-In . SVG Version: 6.00 Build 0)  -->
<!DOCTYPE svg PUBLIC "-//W3C//DTD SVG 1.1//EN" "http://www.w3.org/Graphics/SVG/1.1/DTD/svg11.dtd">
<svg version="1.1" id="Layer_1" xmlns="http://www.w3.org/2000/svg" xmlns:xlink="http://www.w3.org/1999/xlink" x="0px" y="0px"
	 width="512px" height="512px" viewBox="0 0 512 512" enable-background="new 0 0 512 512" xml:space="preserve">
<path id="twitter-5-icon" fill="#FFFFFF" d="M256,90c91.742,0,166,74.244,166,166c0,91.741-74.244,166-166,166
	c-91.743,0-166-74.245-166-166C90,164.259,164.244,90,256,90 M256,50C142.229,50,50,142.229,50,256c0,113.771,92.229,206,206,206
	c113.771,0,206-92.229,206-206C462,142.229,369.771,50,256,50L256,50z M368.798,201.997c-7.712,3.42-15.999,5.731-24.697,6.771
	c8.876-5.322,15.696-13.748,18.906-23.79c-8.312,4.928-17.513,8.506-27.308,10.436c-7.843-8.357-19.02-13.579-31.387-13.579
	c-27.756,0-48.16,25.901-41.89,52.8c-35.735-1.793-67.423-18.913-88.63-44.928c-11.265,19.322-5.844,44.609,13.309,57.408
	c-7.049-0.223-13.683-2.157-19.479-5.379c-0.466,19.923,13.812,38.553,34.489,42.708c-6.052,1.646-12.681,2.023-19.419,0.735
	c5.472,17.084,21.354,29.516,40.17,29.862c-18.079,14.169-40.849,20.495-63.661,17.807c19.028,12.2,41.632,19.32,65.915,19.32
	c79.834,0,124.939-67.434,122.223-127.911C355.741,218.194,363.031,210.62,368.798,201.997z"/>
</svg>
